<?xml version="1.0" encoding="utf-8"?>
<!-- Generator: Adobe Illustrator 15.0.0, SVG Export Plug-In . SVG Version: 6.00 Build 0)  -->
<!DOCTYPE svg PUBLIC "-//W3C//DTD SVG 1.1//EN" "http://www.w3.org/Graphics/SVG/1.1/DTD/svg11.dtd">
<svg version="1.1" id="Layer_1" xmlns="http://www.w3.org/2000/svg" xmlns:xlink="http://www.w3.org/1999/xlink" x="0px" y="0px"
	 width="58.667px" height="58.667px" viewBox="0 0 58.667 58.667" enable-background="new 0 0 58.667 58.667" xml:space="preserve">
<g>
	<path fill="#FFFFFF" d="M29.25,0C13.096,0,0,13.096,0,29.25C0,45.404,13.096,58.5,29.25,58.5c16.154,0,29.25-13.096,29.25-29.25
		C58.5,13.096,45.404,0,29.25,0z M21.752,20.242c2.076,0,3.758,1.682,3.758,3.758s-1.682,3.758-3.758,3.758
		c-2.075,0-3.758-1.682-3.758-3.758S19.677,20.242,21.752,20.242z M29.094,44.466C22.772,44.466,17.629,37,17.629,33h2.25
		c0,4,4.135,9.217,9.215,9.217c5.083,0,9.217-5.217,9.217-9.217h2.249C40.561,37,35.417,44.466,29.094,44.466z M37.501,27.758
		c-2.076,0-3.758-1.682-3.758-3.758s1.682-3.758,3.758-3.758c2.075,0,3.758,1.682,3.758,3.758S39.577,27.758,37.501,27.758z"/>
</g>
<g id="Layer_4" display="none">
	<g display="inline">
		<circle fill="#EFE585" cx="29.25" cy="29.25" r="29.25"/>
		<circle fill="#231F20" cx="21.752" cy="24" r="3.758"/>
		<circle fill="#231F20" cx="37.501" cy="24" r="3.759"/>
		<path fill="#231F20" d="M29.094,39.865C23.597,39.865,19.45,37,19.45,35h2.25c0,2,2.949,2.615,7.395,2.615
			c4.445,0,7.392-0.615,7.392-2.615h2.252C38.738,37,34.591,39.865,29.094,39.865z"/>
	</g>
</g>
<g id="Layer_3" display="none">
	<g display="inline">
		<circle fill="#C5E4F6" cx="29.25" cy="29.25" r="29.25"/>
		<circle fill="#231F20" cx="21.751" cy="24" r="3.759"/>
		<circle fill="#231F20" cx="37.501" cy="24" r="3.759"/>
		<rect x="22" y="36" fill="#231F20" width="16" height="2"/>
	</g>
</g>
<g id="Layer_2" display="none">
	<g display="inline">
		<circle fill="#E56475" cx="29.25" cy="29.25" r="29.25"/>
		<circle fill="#231F20" cx="21.751" cy="24" r="3.759"/>
		<path fill="#231F20" d="M41.259,24c0,2.074-1.684,3.758-3.76,3.758c-2.072,0-3.756-1.684-3.756-3.758
			c0-2.077,1.684-3.758,3.756-3.758C39.576,20.242,41.259,21.923,41.259,24z"/>
		<path fill="#231F20" d="M35.914,41H34.25c0-4-2.312-5.15-5.151-5.15c-2.844,0-5.154,1.15-5.154,5.15H22.28
			c0-4,3.061-6.813,6.818-6.813C32.856,34.186,35.914,37,35.914,41z"/>
	</g>
</g>
</svg>
